G04 EAGLE Gerber RS-274X export*
G75*
%MOMM*%
%FSLAX34Y34*%
%LPD*%
%INBottom Copper*%
%IPPOS*%
%AMOC8*
5,1,8,0,0,1.08239X$1,22.5*%
G01*
%ADD10C,0.050800*%
%ADD11C,1.524000*%
%ADD12C,0.254000*%
%ADD13C,0.756400*%
%ADD14C,0.706400*%

G36*
X107718Y5084D02*
X107718Y5084D01*
X107737Y5082D01*
X107839Y5104D01*
X107941Y5120D01*
X107958Y5130D01*
X107978Y5134D01*
X108067Y5187D01*
X108158Y5236D01*
X108172Y5250D01*
X108189Y5260D01*
X108256Y5339D01*
X108328Y5414D01*
X108336Y5432D01*
X108349Y5447D01*
X108388Y5543D01*
X108431Y5637D01*
X108433Y5657D01*
X108441Y5675D01*
X108459Y5842D01*
X108459Y165461D01*
X108456Y165480D01*
X108458Y165500D01*
X108436Y165601D01*
X108420Y165703D01*
X108410Y165721D01*
X108406Y165740D01*
X108353Y165829D01*
X108304Y165921D01*
X108290Y165934D01*
X108280Y165952D01*
X108201Y166019D01*
X108126Y166090D01*
X108108Y166099D01*
X108093Y166111D01*
X107997Y166150D01*
X107903Y166194D01*
X107883Y166196D01*
X107865Y166203D01*
X107724Y166219D01*
X106679Y167264D01*
X106679Y171114D01*
X107790Y172226D01*
X107833Y172285D01*
X107883Y172337D01*
X107904Y172384D01*
X107934Y172425D01*
X107955Y172495D01*
X107986Y172561D01*
X107991Y172612D01*
X108006Y172660D01*
X108004Y172733D01*
X108012Y172805D01*
X108001Y172855D01*
X108000Y172906D01*
X107975Y172975D01*
X107959Y173046D01*
X107933Y173089D01*
X107915Y173137D01*
X107870Y173194D01*
X107832Y173256D01*
X107794Y173289D01*
X107762Y173329D01*
X107701Y173369D01*
X107645Y173416D01*
X107582Y173445D01*
X107555Y173462D01*
X107531Y173468D01*
X107493Y173486D01*
X107173Y173593D01*
X107152Y173616D01*
X107102Y173686D01*
X107071Y173708D01*
X107046Y173736D01*
X107010Y173759D01*
X106828Y174305D01*
X106812Y174334D01*
X106811Y174339D01*
X106807Y174358D01*
X106799Y174371D01*
X106786Y174405D01*
X106526Y174925D01*
X106528Y174956D01*
X106542Y175041D01*
X106536Y175078D01*
X106538Y175116D01*
X106529Y175158D01*
X106786Y175673D01*
X106796Y175704D01*
X106828Y175773D01*
X107011Y176325D01*
X107035Y176345D01*
X107105Y176396D01*
X107126Y176426D01*
X107155Y176451D01*
X107178Y176488D01*
X107724Y176670D01*
X107753Y176685D01*
X107824Y176711D01*
X108038Y176818D01*
X108111Y176871D01*
X108189Y176917D01*
X108211Y176943D01*
X108238Y176962D01*
X108290Y177036D01*
X108349Y177104D01*
X108361Y177135D01*
X108381Y177162D01*
X108407Y177249D01*
X108441Y177332D01*
X108445Y177375D01*
X108452Y177398D01*
X108452Y177430D01*
X108459Y177499D01*
X108459Y179553D01*
X108456Y179573D01*
X108458Y179593D01*
X108436Y179694D01*
X108420Y179796D01*
X108410Y179814D01*
X108406Y179833D01*
X108353Y179922D01*
X108304Y180013D01*
X108290Y180027D01*
X108280Y180044D01*
X108201Y180112D01*
X108126Y180183D01*
X108108Y180191D01*
X108093Y180204D01*
X107997Y180243D01*
X107903Y180286D01*
X107883Y180289D01*
X107865Y180296D01*
X107724Y180312D01*
X106679Y181357D01*
X106679Y188495D01*
X106687Y188507D01*
X106747Y188591D01*
X106753Y188610D01*
X106764Y188627D01*
X106789Y188727D01*
X106820Y188826D01*
X106819Y188846D01*
X106824Y188865D01*
X106816Y188968D01*
X106813Y189072D01*
X106806Y189091D01*
X106805Y189110D01*
X106764Y189205D01*
X106729Y189303D01*
X106716Y189318D01*
X106708Y189337D01*
X106679Y189373D01*
X106679Y190866D01*
X106833Y191020D01*
X106876Y191080D01*
X106927Y191134D01*
X106948Y191179D01*
X106977Y191219D01*
X106999Y191290D01*
X107029Y191357D01*
X107035Y191407D01*
X107049Y191455D01*
X107047Y191528D01*
X107055Y191602D01*
X107044Y191669D01*
X107043Y191700D01*
X107034Y191724D01*
X107027Y191767D01*
X106929Y192112D01*
X106882Y192210D01*
X106840Y192310D01*
X106828Y192324D01*
X106824Y192334D01*
X106803Y192356D01*
X106735Y192441D01*
X106679Y192497D01*
X106679Y192878D01*
X106676Y192899D01*
X106678Y192921D01*
X106650Y193087D01*
X106545Y193453D01*
X106583Y193522D01*
X106620Y193623D01*
X106640Y193666D01*
X106641Y193675D01*
X106661Y193725D01*
X106663Y193743D01*
X106667Y193753D01*
X106667Y193783D01*
X106679Y193892D01*
X106679Y193970D01*
X106784Y194074D01*
X106795Y194091D01*
X106811Y194103D01*
X106867Y194190D01*
X106927Y194274D01*
X106933Y194293D01*
X106944Y194310D01*
X106969Y194410D01*
X106999Y194509D01*
X106999Y194529D01*
X107004Y194548D01*
X106996Y194651D01*
X106993Y194755D01*
X106986Y194774D01*
X106985Y194794D01*
X106944Y194889D01*
X106909Y194986D01*
X106896Y195002D01*
X106888Y195020D01*
X106813Y195114D01*
X106808Y195123D01*
X106802Y195128D01*
X106784Y195151D01*
X106679Y195255D01*
X106679Y199277D01*
X106702Y199351D01*
X106736Y199435D01*
X106738Y199468D01*
X106748Y199500D01*
X106746Y199590D01*
X106751Y199680D01*
X106742Y199722D01*
X106741Y199746D01*
X106730Y199776D01*
X106716Y199844D01*
X106538Y200379D01*
X107230Y201765D01*
X107237Y201786D01*
X107249Y201804D01*
X107273Y201903D01*
X107303Y202000D01*
X107303Y202022D01*
X107308Y202043D01*
X107300Y202144D01*
X107298Y202246D01*
X107290Y202266D01*
X107288Y202288D01*
X107230Y202446D01*
X106538Y203831D01*
X106847Y204759D01*
X106861Y204848D01*
X106883Y204936D01*
X106881Y204969D01*
X106886Y205002D01*
X106871Y205091D01*
X106864Y205181D01*
X106851Y205211D01*
X106845Y205244D01*
X106803Y205324D01*
X106768Y205407D01*
X106741Y205440D01*
X106730Y205461D01*
X106707Y205483D01*
X106679Y205517D01*
X106679Y206995D01*
X106866Y207182D01*
X106919Y207255D01*
X106978Y207324D01*
X106990Y207355D01*
X107010Y207382D01*
X107036Y207468D01*
X107070Y207552D01*
X107072Y207585D01*
X107082Y207617D01*
X107080Y207707D01*
X107085Y207797D01*
X107076Y207839D01*
X107076Y207863D01*
X107065Y207893D01*
X107050Y207961D01*
X106538Y209499D01*
X107197Y210817D01*
X107939Y211065D01*
X107957Y211074D01*
X107978Y211079D01*
X108066Y211131D01*
X108156Y211179D01*
X108171Y211194D01*
X108189Y211205D01*
X108255Y211283D01*
X108326Y211357D01*
X108335Y211376D01*
X108349Y211392D01*
X108387Y211487D01*
X108431Y211580D01*
X108433Y211601D01*
X108441Y211620D01*
X108459Y211787D01*
X108459Y212314D01*
X108456Y212333D01*
X108458Y212353D01*
X108436Y212454D01*
X108420Y212556D01*
X108410Y212574D01*
X108406Y212593D01*
X108353Y212682D01*
X108304Y212774D01*
X108290Y212787D01*
X108280Y212805D01*
X108201Y212872D01*
X108126Y212943D01*
X108108Y212951D01*
X108093Y212964D01*
X107997Y213003D01*
X107903Y213047D01*
X107883Y213049D01*
X107865Y213056D01*
X107724Y213072D01*
X106679Y214117D01*
X106679Y215590D01*
X106866Y215777D01*
X106919Y215851D01*
X106978Y215919D01*
X106990Y215950D01*
X107010Y215977D01*
X107036Y216063D01*
X107070Y216147D01*
X107072Y216180D01*
X107082Y216212D01*
X107080Y216302D01*
X107085Y216392D01*
X107076Y216434D01*
X107076Y216458D01*
X107065Y216488D01*
X107050Y216556D01*
X106538Y218095D01*
X106895Y218809D01*
X106901Y218829D01*
X106913Y218847D01*
X106937Y218946D01*
X106968Y219044D01*
X106967Y219065D01*
X106973Y219086D01*
X106965Y219188D01*
X106962Y219290D01*
X106955Y219310D01*
X106953Y219331D01*
X106913Y219425D01*
X106878Y219521D01*
X106865Y219538D01*
X106857Y219557D01*
X106752Y219688D01*
X106679Y219761D01*
X106679Y223718D01*
X106982Y224021D01*
X107008Y224056D01*
X107040Y224086D01*
X107079Y224156D01*
X107126Y224221D01*
X107139Y224263D01*
X107160Y224301D01*
X107175Y224379D01*
X107198Y224456D01*
X107197Y224500D01*
X107205Y224543D01*
X107194Y224622D01*
X107192Y224702D01*
X107177Y224743D01*
X107170Y224786D01*
X107112Y224920D01*
X107107Y224933D01*
X107105Y224935D01*
X107103Y224940D01*
X106679Y225674D01*
X106679Y229083D01*
X107724Y230127D01*
X107737Y230126D01*
X107839Y230148D01*
X107941Y230164D01*
X107958Y230174D01*
X107978Y230178D01*
X108067Y230231D01*
X108158Y230280D01*
X108172Y230294D01*
X108189Y230304D01*
X108256Y230383D01*
X108328Y230458D01*
X108336Y230476D01*
X108349Y230491D01*
X108388Y230587D01*
X108431Y230681D01*
X108433Y230701D01*
X108441Y230719D01*
X108459Y230886D01*
X108459Y237898D01*
X108456Y237918D01*
X108458Y237937D01*
X108436Y238039D01*
X108420Y238141D01*
X108410Y238158D01*
X108406Y238178D01*
X108353Y238267D01*
X108304Y238358D01*
X108290Y238372D01*
X108280Y238389D01*
X108201Y238456D01*
X108126Y238528D01*
X108108Y238536D01*
X108093Y238549D01*
X107997Y238588D01*
X107903Y238631D01*
X107883Y238633D01*
X107865Y238641D01*
X107698Y238659D01*
X31184Y238659D01*
X31139Y238652D01*
X31093Y238654D01*
X31018Y238632D01*
X30941Y238620D01*
X30901Y238598D01*
X30856Y238585D01*
X30792Y238541D01*
X30724Y238504D01*
X30692Y238471D01*
X30654Y238445D01*
X30608Y238383D01*
X30554Y238326D01*
X30535Y238284D01*
X30508Y238248D01*
X30483Y238174D01*
X30451Y238103D01*
X30446Y238057D01*
X30431Y238014D01*
X30432Y237936D01*
X30424Y237859D01*
X30433Y237814D01*
X30434Y237768D01*
X30472Y237636D01*
X30476Y237618D01*
X30478Y237614D01*
X30480Y237607D01*
X31116Y236073D01*
X31116Y228747D01*
X28312Y221978D01*
X23132Y216798D01*
X16363Y213994D01*
X9037Y213994D01*
X7403Y214671D01*
X7359Y214681D01*
X7317Y214701D01*
X7240Y214709D01*
X7164Y214727D01*
X7118Y214723D01*
X7073Y214728D01*
X6996Y214711D01*
X6919Y214704D01*
X6877Y214685D01*
X6832Y214676D01*
X6765Y214636D01*
X6694Y214604D01*
X6660Y214573D01*
X6621Y214549D01*
X6570Y214490D01*
X6513Y214438D01*
X6491Y214397D01*
X6461Y214363D01*
X6432Y214290D01*
X6395Y214222D01*
X6386Y214177D01*
X6369Y214134D01*
X6354Y213998D01*
X6351Y213980D01*
X6352Y213975D01*
X6351Y213968D01*
X6351Y5842D01*
X6354Y5822D01*
X6352Y5803D01*
X6374Y5701D01*
X6390Y5599D01*
X6400Y5582D01*
X6404Y5562D01*
X6457Y5473D01*
X6506Y5382D01*
X6520Y5368D01*
X6530Y5351D01*
X6609Y5284D01*
X6684Y5212D01*
X6702Y5204D01*
X6717Y5191D01*
X6813Y5152D01*
X6907Y5109D01*
X6927Y5107D01*
X6945Y5099D01*
X7112Y5081D01*
X107698Y5081D01*
X107718Y5084D01*
G37*
%LPC*%
G36*
X82001Y9905D02*
X82001Y9905D01*
X78640Y11297D01*
X76067Y13870D01*
X74675Y17231D01*
X74675Y36109D01*
X76067Y39470D01*
X78640Y42043D01*
X80555Y42836D01*
X80655Y42898D01*
X80755Y42957D01*
X80759Y42962D01*
X80764Y42965D01*
X80839Y43056D01*
X80915Y43144D01*
X80917Y43150D01*
X80921Y43155D01*
X80963Y43263D01*
X81007Y43372D01*
X81008Y43380D01*
X81009Y43385D01*
X81010Y43403D01*
X81025Y43539D01*
X81025Y49327D01*
X81011Y49417D01*
X81003Y49508D01*
X80991Y49538D01*
X80986Y49570D01*
X80943Y49650D01*
X80907Y49734D01*
X80881Y49766D01*
X80870Y49787D01*
X80847Y49809D01*
X80802Y49865D01*
X65785Y64882D01*
X65785Y95047D01*
X65771Y95137D01*
X65763Y95228D01*
X65751Y95258D01*
X65746Y95290D01*
X65703Y95370D01*
X65667Y95454D01*
X65641Y95486D01*
X65630Y95507D01*
X65607Y95529D01*
X65562Y95585D01*
X58727Y102420D01*
X58653Y102473D01*
X58584Y102533D01*
X58554Y102545D01*
X58528Y102564D01*
X58441Y102591D01*
X58356Y102625D01*
X58315Y102629D01*
X58293Y102636D01*
X58260Y102635D01*
X58189Y102643D01*
X54952Y102643D01*
X51843Y105752D01*
X51843Y110148D01*
X54952Y113257D01*
X59348Y113257D01*
X62457Y110148D01*
X62457Y106911D01*
X62471Y106821D01*
X62479Y106730D01*
X62491Y106700D01*
X62496Y106668D01*
X62539Y106588D01*
X62575Y106504D01*
X62601Y106472D01*
X62612Y106451D01*
X62635Y106429D01*
X62680Y106373D01*
X71375Y97678D01*
X71375Y67513D01*
X71389Y67423D01*
X71397Y67332D01*
X71409Y67302D01*
X71414Y67270D01*
X71437Y67228D01*
X71438Y67223D01*
X71451Y67201D01*
X71457Y67190D01*
X71493Y67106D01*
X71519Y67074D01*
X71530Y67053D01*
X71553Y67031D01*
X71553Y67030D01*
X71564Y67012D01*
X71576Y67002D01*
X71598Y66975D01*
X86615Y51958D01*
X86615Y43539D01*
X86634Y43424D01*
X86651Y43308D01*
X86653Y43303D01*
X86654Y43296D01*
X86709Y43194D01*
X86762Y43089D01*
X86767Y43085D01*
X86770Y43079D01*
X86854Y42999D01*
X86938Y42917D01*
X86944Y42913D01*
X86948Y42910D01*
X86965Y42902D01*
X87085Y42836D01*
X89000Y42043D01*
X91573Y39470D01*
X92965Y36109D01*
X92965Y17231D01*
X91573Y13870D01*
X89000Y11297D01*
X85639Y9905D01*
X82001Y9905D01*
G37*
%LPD*%
%LPC*%
G36*
X95999Y141812D02*
X95999Y141812D01*
X95962Y141818D01*
X95927Y141832D01*
X95841Y141837D01*
X95756Y141851D01*
X95719Y141844D01*
X95681Y141847D01*
X95639Y141838D01*
X95124Y142095D01*
X95093Y142105D01*
X95024Y142136D01*
X94473Y142320D01*
X94452Y142344D01*
X94402Y142413D01*
X94371Y142435D01*
X94346Y142463D01*
X94310Y142487D01*
X94128Y143033D01*
X94112Y143062D01*
X94086Y143133D01*
X93826Y143653D01*
X93828Y143684D01*
X93842Y143769D01*
X93836Y143806D01*
X93838Y143843D01*
X93829Y143886D01*
X94086Y144401D01*
X94096Y144432D01*
X94128Y144500D01*
X94311Y145052D01*
X94335Y145073D01*
X94405Y145123D01*
X94426Y145154D01*
X94455Y145179D01*
X94478Y145215D01*
X94969Y145379D01*
X95074Y145434D01*
X95185Y145492D01*
X95185Y145493D01*
X95186Y145493D01*
X95268Y145579D01*
X95355Y145669D01*
X95355Y145670D01*
X95356Y145671D01*
X95410Y145785D01*
X95460Y145892D01*
X95460Y145893D01*
X95460Y145894D01*
X95475Y146020D01*
X95488Y146136D01*
X95488Y146137D01*
X95488Y146138D01*
X95461Y146263D01*
X95437Y146377D01*
X95437Y146379D01*
X95372Y146487D01*
X95312Y146588D01*
X95312Y146589D01*
X95311Y146590D01*
X95222Y146667D01*
X95126Y146749D01*
X95125Y146750D01*
X95120Y146752D01*
X95083Y146770D01*
X93979Y148315D01*
X93979Y150191D01*
X94953Y151554D01*
X94960Y151570D01*
X94972Y151583D01*
X95015Y151680D01*
X95061Y151774D01*
X95064Y151792D01*
X95071Y151808D01*
X95080Y151914D01*
X95094Y152018D01*
X95091Y152036D01*
X95092Y152053D01*
X95067Y152156D01*
X95047Y152260D01*
X95039Y152275D01*
X95037Y152281D01*
X95037Y152282D01*
X95034Y152292D01*
X94953Y152439D01*
X93979Y153801D01*
X93979Y155678D01*
X94188Y155970D01*
X94223Y156042D01*
X94267Y156109D01*
X94277Y156151D01*
X94297Y156190D01*
X94307Y156270D01*
X94327Y156348D01*
X94324Y156391D01*
X94329Y156434D01*
X94314Y156513D01*
X94308Y156593D01*
X94291Y156633D01*
X94283Y156675D01*
X94243Y156746D01*
X94212Y156819D01*
X94176Y156864D01*
X94161Y156889D01*
X94140Y156908D01*
X94107Y156950D01*
X93358Y157699D01*
X93358Y161656D01*
X93756Y162054D01*
X93809Y162128D01*
X93869Y162197D01*
X93881Y162227D01*
X93900Y162253D01*
X93927Y162340D01*
X93961Y162425D01*
X93965Y162466D01*
X93972Y162488D01*
X93971Y162521D01*
X93979Y162592D01*
X93979Y164065D01*
X94140Y164226D01*
X94184Y164288D01*
X94236Y164344D01*
X94256Y164387D01*
X94283Y164425D01*
X94306Y164499D01*
X94337Y164569D01*
X94342Y164616D01*
X94356Y164660D01*
X94354Y164737D01*
X94361Y164814D01*
X94350Y164876D01*
X94349Y164906D01*
X94340Y164931D01*
X94332Y164979D01*
X93844Y166638D01*
X93975Y166878D01*
X93986Y166911D01*
X94005Y166940D01*
X94019Y166996D01*
X94031Y167022D01*
X94034Y167046D01*
X94056Y167110D01*
X94056Y167145D01*
X94065Y167179D01*
X94058Y167267D01*
X94059Y167356D01*
X94048Y167389D01*
X94046Y167424D01*
X94011Y167505D01*
X93984Y167590D01*
X93979Y167596D01*
X93979Y170367D01*
X94028Y170443D01*
X94089Y170527D01*
X94095Y170546D01*
X94105Y170563D01*
X94131Y170663D01*
X94161Y170762D01*
X94161Y170782D01*
X94165Y170802D01*
X94157Y170905D01*
X94155Y171008D01*
X94148Y171027D01*
X94146Y171047D01*
X94106Y171142D01*
X94070Y171239D01*
X94058Y171255D01*
X94050Y171273D01*
X93979Y171361D01*
X93979Y172844D01*
X95021Y173885D01*
X95446Y173885D01*
X95518Y173897D01*
X95591Y173899D01*
X95639Y173917D01*
X95688Y173925D01*
X95753Y173959D01*
X95822Y173985D01*
X95861Y174017D01*
X95906Y174040D01*
X95956Y174093D01*
X96013Y174139D01*
X96040Y174182D01*
X96075Y174219D01*
X96106Y174285D01*
X96145Y174347D01*
X96157Y174396D01*
X96179Y174442D01*
X96187Y174514D01*
X96204Y174586D01*
X96200Y174636D01*
X96206Y174686D01*
X96190Y174758D01*
X96184Y174831D01*
X96164Y174877D01*
X96153Y174927D01*
X96116Y174989D01*
X96087Y175057D01*
X96044Y175110D01*
X96027Y175138D01*
X96009Y175153D01*
X95982Y175187D01*
X95282Y175881D01*
X94656Y176501D01*
X93979Y178127D01*
X93979Y179816D01*
X94066Y179967D01*
X94082Y180008D01*
X94105Y180045D01*
X94125Y180122D01*
X94153Y180197D01*
X94155Y180241D01*
X94166Y180283D01*
X94159Y180363D01*
X94162Y180443D01*
X94150Y180485D01*
X94146Y180529D01*
X94115Y180602D01*
X94092Y180679D01*
X94067Y180715D01*
X94050Y180755D01*
X93959Y180869D01*
X93951Y180880D01*
X93948Y180882D01*
X93945Y180886D01*
X93358Y181473D01*
X93358Y185430D01*
X94107Y186178D01*
X94154Y186244D01*
X94208Y186303D01*
X94225Y186343D01*
X94250Y186378D01*
X94274Y186455D01*
X94306Y186529D01*
X94310Y186572D01*
X94323Y186613D01*
X94321Y186693D01*
X94328Y186774D01*
X94317Y186816D01*
X94316Y186859D01*
X94289Y186934D01*
X94270Y187013D01*
X94242Y187063D01*
X94232Y187090D01*
X94214Y187112D01*
X94188Y187159D01*
X93979Y187451D01*
X93979Y189327D01*
X94546Y190120D01*
X94581Y190192D01*
X94625Y190260D01*
X94635Y190302D01*
X94655Y190341D01*
X94665Y190421D01*
X94685Y190499D01*
X94682Y190542D01*
X94687Y190585D01*
X94672Y190664D01*
X94666Y190744D01*
X94649Y190784D01*
X94641Y190826D01*
X94601Y190896D01*
X94569Y190970D01*
X94534Y191015D01*
X94519Y191040D01*
X94498Y191059D01*
X94465Y191101D01*
X93979Y191587D01*
X93979Y196197D01*
X94039Y196280D01*
X94045Y196299D01*
X94055Y196316D01*
X94081Y196416D01*
X94111Y196515D01*
X94111Y196535D01*
X94115Y196555D01*
X94107Y196658D01*
X94105Y196761D01*
X94098Y196780D01*
X94096Y196800D01*
X94056Y196895D01*
X94020Y196992D01*
X94008Y197008D01*
X94000Y197026D01*
X93943Y197097D01*
X93940Y197119D01*
X93920Y197155D01*
X93977Y197851D01*
X93975Y197873D01*
X93979Y197912D01*
X93979Y201684D01*
X94039Y201766D01*
X94045Y201785D01*
X94055Y201802D01*
X94081Y201903D01*
X94111Y202002D01*
X94111Y202022D01*
X94115Y202041D01*
X94107Y202144D01*
X94105Y202247D01*
X94098Y202266D01*
X94096Y202286D01*
X94056Y202381D01*
X94020Y202478D01*
X94008Y202494D01*
X94000Y202512D01*
X93943Y202584D01*
X93940Y202605D01*
X93920Y202641D01*
X93977Y203337D01*
X93975Y203360D01*
X93979Y203399D01*
X93979Y207169D01*
X93981Y207172D01*
X94039Y207253D01*
X94045Y207272D01*
X94055Y207289D01*
X94081Y207389D01*
X94111Y207488D01*
X94111Y207508D01*
X94115Y207527D01*
X94107Y207630D01*
X94105Y207734D01*
X94098Y207753D01*
X94096Y207773D01*
X94056Y207868D01*
X94020Y207965D01*
X94008Y207981D01*
X94000Y207999D01*
X93943Y208070D01*
X93940Y208092D01*
X93920Y208128D01*
X93977Y208824D01*
X93975Y208846D01*
X93979Y208885D01*
X93979Y212624D01*
X94465Y213109D01*
X94512Y213174D01*
X94566Y213234D01*
X94583Y213274D01*
X94608Y213309D01*
X94632Y213386D01*
X94664Y213459D01*
X94668Y213502D01*
X94681Y213544D01*
X94678Y213624D01*
X94685Y213704D01*
X94675Y213746D01*
X94674Y213790D01*
X94647Y213865D01*
X94628Y213943D01*
X94600Y213993D01*
X94590Y214021D01*
X94572Y214043D01*
X94546Y214090D01*
X93979Y214883D01*
X93979Y216759D01*
X94543Y217549D01*
X94565Y217593D01*
X94596Y217633D01*
X94619Y217703D01*
X94652Y217769D01*
X94659Y217819D01*
X94675Y217866D01*
X94675Y217940D01*
X94685Y218013D01*
X94675Y218062D01*
X94675Y218112D01*
X94652Y218182D01*
X94638Y218255D01*
X94613Y218298D01*
X94598Y218345D01*
X94529Y218447D01*
X94517Y218469D01*
X94511Y218474D01*
X94504Y218484D01*
X94469Y218525D01*
X94452Y218540D01*
X94428Y218570D01*
X93941Y219057D01*
X93940Y219064D01*
X93920Y219101D01*
X93977Y219796D01*
X93975Y219819D01*
X93979Y219858D01*
X93979Y223629D01*
X94039Y223712D01*
X94045Y223731D01*
X94055Y223748D01*
X94081Y223848D01*
X94111Y223947D01*
X94111Y223967D01*
X94115Y223986D01*
X94107Y224089D01*
X94105Y224193D01*
X94098Y224212D01*
X94096Y224232D01*
X94056Y224326D01*
X94020Y224424D01*
X94008Y224440D01*
X94000Y224458D01*
X93979Y224484D01*
X93979Y229083D01*
X95021Y230125D01*
X96495Y230125D01*
X97626Y228993D01*
X97643Y228965D01*
X97692Y228874D01*
X97706Y228860D01*
X97716Y228843D01*
X97795Y228775D01*
X97870Y228704D01*
X97888Y228696D01*
X97903Y228683D01*
X97999Y228644D01*
X98093Y228601D01*
X98113Y228598D01*
X98131Y228591D01*
X98298Y228573D01*
X101205Y228573D01*
X101234Y228577D01*
X101289Y228577D01*
X101924Y228648D01*
X101976Y228619D01*
X102024Y228610D01*
X102060Y228595D01*
X102504Y228151D01*
X102528Y228134D01*
X102567Y228095D01*
X103066Y227696D01*
X103082Y227639D01*
X103110Y227598D01*
X103125Y227562D01*
X103125Y226935D01*
X103129Y226906D01*
X103129Y226850D01*
X103200Y226216D01*
X103171Y226164D01*
X103162Y226115D01*
X103147Y226079D01*
X102703Y225635D01*
X102687Y225612D01*
X102647Y225573D01*
X102106Y224896D01*
X102068Y224829D01*
X102022Y224766D01*
X102008Y224722D01*
X101985Y224682D01*
X101971Y224606D01*
X101947Y224532D01*
X101948Y224486D01*
X101939Y224440D01*
X101950Y224363D01*
X101951Y224286D01*
X101966Y224242D01*
X101973Y224196D01*
X102007Y224127D01*
X102033Y224054D01*
X102061Y224018D01*
X102082Y223976D01*
X102137Y223921D01*
X102184Y223860D01*
X102234Y223824D01*
X102256Y223802D01*
X102269Y223796D01*
X103125Y222314D01*
X103125Y220301D01*
X102171Y218990D01*
X102162Y218971D01*
X102148Y218955D01*
X102107Y218861D01*
X102061Y218770D01*
X102058Y218749D01*
X102049Y218730D01*
X102040Y218628D01*
X102026Y218526D01*
X102030Y218506D01*
X102028Y218485D01*
X102052Y218385D01*
X102070Y218284D01*
X102081Y218266D01*
X102086Y218246D01*
X102167Y218099D01*
X103125Y216759D01*
X103125Y214883D01*
X102279Y213698D01*
X102233Y213605D01*
X102182Y213514D01*
X102178Y213495D01*
X102170Y213478D01*
X102156Y213374D01*
X102137Y213272D01*
X102140Y213253D01*
X102137Y213234D01*
X102157Y213132D01*
X102171Y213029D01*
X102181Y213007D01*
X102184Y212992D01*
X102200Y212965D01*
X102239Y212875D01*
X103125Y211341D01*
X103125Y209328D01*
X102298Y208191D01*
X102249Y208095D01*
X102197Y208001D01*
X102194Y207985D01*
X102187Y207971D01*
X102172Y207865D01*
X102152Y207760D01*
X102155Y207744D01*
X102152Y207728D01*
X102172Y207622D01*
X102187Y207516D01*
X102195Y207498D01*
X102197Y207486D01*
X102212Y207459D01*
X102254Y207362D01*
X103125Y205854D01*
X103125Y203841D01*
X102298Y202704D01*
X102249Y202608D01*
X102197Y202515D01*
X102194Y202499D01*
X102187Y202485D01*
X102172Y202378D01*
X102152Y202273D01*
X102155Y202257D01*
X102152Y202241D01*
X102172Y202136D01*
X102187Y202030D01*
X102195Y202012D01*
X102197Y201999D01*
X102210Y201976D01*
X102212Y201965D01*
X102223Y201947D01*
X102254Y201876D01*
X103125Y200368D01*
X103125Y198355D01*
X101931Y196714D01*
X101894Y196639D01*
X101849Y196569D01*
X101839Y196530D01*
X101821Y196495D01*
X101809Y196412D01*
X101789Y196331D01*
X101792Y196291D01*
X101786Y196251D01*
X101801Y196169D01*
X101808Y196086D01*
X101823Y196049D01*
X101831Y196009D01*
X101871Y195936D01*
X101904Y195859D01*
X101937Y195818D01*
X101950Y195794D01*
X101972Y195774D01*
X102009Y195728D01*
X102504Y195233D01*
X102528Y195216D01*
X102567Y195177D01*
X103066Y194778D01*
X103082Y194721D01*
X103110Y194680D01*
X103125Y194644D01*
X103125Y194016D01*
X103129Y193988D01*
X103129Y193932D01*
X103200Y193297D01*
X103171Y193246D01*
X103162Y193197D01*
X103147Y193161D01*
X102703Y192717D01*
X102687Y192694D01*
X102647Y192655D01*
X102003Y191850D01*
X101985Y191816D01*
X101959Y191788D01*
X101925Y191710D01*
X101883Y191636D01*
X101876Y191598D01*
X101860Y191563D01*
X101853Y191478D01*
X101837Y191394D01*
X101842Y191356D01*
X101839Y191317D01*
X101859Y191235D01*
X101870Y191150D01*
X101888Y191116D01*
X101897Y191078D01*
X101978Y190932D01*
X103125Y189327D01*
X103125Y187451D01*
X102034Y185924D01*
X101295Y185671D01*
X101268Y185656D01*
X101208Y185635D01*
X100025Y185058D01*
X97677Y185058D01*
X97657Y185055D01*
X97638Y185057D01*
X97536Y185035D01*
X97434Y185018D01*
X97417Y185009D01*
X97397Y185005D01*
X97308Y184952D01*
X97217Y184903D01*
X97203Y184889D01*
X97186Y184879D01*
X97119Y184800D01*
X97048Y184725D01*
X97039Y184707D01*
X97026Y184692D01*
X96987Y184596D01*
X96944Y184502D01*
X96942Y184482D01*
X96934Y184464D01*
X96916Y184297D01*
X96916Y182789D01*
X96919Y182769D01*
X96917Y182749D01*
X96939Y182648D01*
X96956Y182546D01*
X96965Y182528D01*
X96969Y182509D01*
X97022Y182420D01*
X97071Y182329D01*
X97085Y182315D01*
X97095Y182298D01*
X97174Y182230D01*
X97249Y182159D01*
X97267Y182151D01*
X97282Y182138D01*
X97378Y182099D01*
X97472Y182056D01*
X97492Y182053D01*
X97510Y182046D01*
X97677Y182028D01*
X97807Y182028D01*
X99015Y181337D01*
X99119Y181298D01*
X99222Y181256D01*
X99235Y181255D01*
X99246Y181251D01*
X99357Y181247D01*
X99468Y181240D01*
X99480Y181243D01*
X99492Y181243D01*
X99598Y181275D01*
X99705Y181304D01*
X99718Y181311D01*
X99727Y181314D01*
X99750Y181330D01*
X99850Y181389D01*
X100402Y181803D01*
X101861Y181595D01*
X102303Y181006D01*
X103125Y179910D01*
X103125Y178541D01*
X103125Y177732D01*
X102410Y176494D01*
X102372Y176393D01*
X102330Y176295D01*
X102329Y176279D01*
X102323Y176264D01*
X102319Y176157D01*
X102310Y176050D01*
X102314Y176034D01*
X102314Y176018D01*
X102344Y175915D01*
X102370Y175811D01*
X102380Y175794D01*
X102384Y175782D01*
X102401Y175757D01*
X102453Y175666D01*
X103125Y174741D01*
X103125Y171365D01*
X103076Y171289D01*
X103015Y171204D01*
X103009Y171185D01*
X102999Y171168D01*
X102973Y171068D01*
X102943Y170969D01*
X102943Y170949D01*
X102939Y170930D01*
X102947Y170827D01*
X102949Y170723D01*
X102956Y170705D01*
X102958Y170685D01*
X102998Y170589D01*
X103034Y170492D01*
X103046Y170477D01*
X103054Y170458D01*
X103125Y170370D01*
X103125Y167415D01*
X103137Y167343D01*
X103139Y167269D01*
X103156Y167222D01*
X103163Y167184D01*
X103088Y165612D01*
X102887Y165430D01*
X102864Y165401D01*
X102834Y165377D01*
X102788Y165305D01*
X102735Y165238D01*
X102722Y165202D01*
X102701Y165170D01*
X102680Y165087D01*
X102651Y165006D01*
X102650Y164968D01*
X102641Y164931D01*
X102648Y164846D01*
X102646Y164760D01*
X102657Y164724D01*
X102660Y164686D01*
X102694Y164607D01*
X102719Y164526D01*
X102741Y164495D01*
X102756Y164460D01*
X102861Y164329D01*
X103125Y164065D01*
X103125Y162592D01*
X102083Y161550D01*
X98913Y161550D01*
X98841Y161538D01*
X98767Y161536D01*
X98720Y161518D01*
X98682Y161512D01*
X97907Y161549D01*
X97893Y161547D01*
X97871Y161550D01*
X97677Y161550D01*
X97657Y161547D01*
X97638Y161549D01*
X97536Y161527D01*
X97434Y161510D01*
X97417Y161501D01*
X97397Y161497D01*
X97308Y161443D01*
X97217Y161395D01*
X97203Y161381D01*
X97186Y161370D01*
X97119Y161292D01*
X97048Y161217D01*
X97039Y161199D01*
X97026Y161183D01*
X96987Y161087D01*
X96944Y160994D01*
X96942Y160974D01*
X96934Y160955D01*
X96916Y160789D01*
X96916Y158832D01*
X96918Y158821D01*
X96917Y158814D01*
X96918Y158806D01*
X96917Y158792D01*
X96939Y158691D01*
X96956Y158589D01*
X96965Y158571D01*
X96969Y158552D01*
X97022Y158463D01*
X97071Y158372D01*
X97085Y158358D01*
X97095Y158341D01*
X97174Y158273D01*
X97249Y158202D01*
X97267Y158194D01*
X97282Y158181D01*
X97378Y158142D01*
X97472Y158099D01*
X97492Y158096D01*
X97510Y158089D01*
X97677Y158070D01*
X100025Y158070D01*
X100679Y157752D01*
X100724Y157738D01*
X100765Y157716D01*
X100895Y157687D01*
X100915Y157681D01*
X100920Y157681D01*
X100929Y157679D01*
X101034Y157668D01*
X101037Y157663D01*
X101125Y157587D01*
X101210Y157510D01*
X101217Y157507D01*
X101223Y157502D01*
X101375Y157430D01*
X102034Y157204D01*
X103125Y155678D01*
X103125Y153801D01*
X102151Y152439D01*
X102149Y152434D01*
X102145Y152430D01*
X102141Y152419D01*
X102132Y152410D01*
X102089Y152313D01*
X102043Y152218D01*
X102040Y152200D01*
X102033Y152184D01*
X102024Y152079D01*
X102010Y151974D01*
X102013Y151957D01*
X102012Y151939D01*
X102037Y151836D01*
X102057Y151733D01*
X102065Y151717D01*
X102070Y151700D01*
X102151Y151554D01*
X103125Y150191D01*
X103125Y148315D01*
X102805Y147868D01*
X102804Y147865D01*
X102802Y147863D01*
X102792Y147842D01*
X102775Y147822D01*
X102739Y147733D01*
X102697Y147647D01*
X102693Y147620D01*
X102682Y147594D01*
X102677Y147498D01*
X102664Y147403D01*
X102669Y147376D01*
X102667Y147349D01*
X102703Y147185D01*
X103266Y145493D01*
X102574Y144107D01*
X102567Y144086D01*
X102555Y144067D01*
X102531Y143969D01*
X102501Y143872D01*
X102501Y143850D01*
X102496Y143829D01*
X102504Y143728D01*
X102506Y143626D01*
X102514Y143606D01*
X102516Y143584D01*
X102574Y143426D01*
X103266Y142041D01*
X102800Y140643D01*
X101483Y139984D01*
X95999Y141812D01*
G37*
%LPD*%
%LPC*%
G36*
X15554Y72163D02*
X15554Y72163D01*
X12445Y75272D01*
X12445Y79668D01*
X15554Y82777D01*
X19950Y82777D01*
X22239Y80488D01*
X22313Y80435D01*
X22383Y80375D01*
X22413Y80363D01*
X22439Y80344D01*
X22526Y80317D01*
X22611Y80283D01*
X22652Y80279D01*
X22674Y80272D01*
X22706Y80273D01*
X22777Y80265D01*
X39167Y80265D01*
X39257Y80279D01*
X39348Y80287D01*
X39378Y80299D01*
X39410Y80304D01*
X39490Y80347D01*
X39574Y80383D01*
X39606Y80409D01*
X39627Y80420D01*
X39649Y80443D01*
X39705Y80488D01*
X43972Y84755D01*
X44025Y84829D01*
X44085Y84898D01*
X44097Y84928D01*
X44116Y84954D01*
X44143Y85041D01*
X44177Y85126D01*
X44181Y85167D01*
X44188Y85189D01*
X44187Y85222D01*
X44195Y85293D01*
X44195Y114188D01*
X51620Y121613D01*
X51673Y121687D01*
X51733Y121756D01*
X51745Y121786D01*
X51764Y121812D01*
X51791Y121899D01*
X51825Y121984D01*
X51829Y122025D01*
X51836Y122047D01*
X51835Y122080D01*
X51843Y122151D01*
X51843Y125388D01*
X54952Y128497D01*
X59348Y128497D01*
X62457Y125388D01*
X62457Y120992D01*
X59348Y117883D01*
X56111Y117883D01*
X56021Y117869D01*
X55930Y117861D01*
X55900Y117849D01*
X55868Y117844D01*
X55788Y117801D01*
X55704Y117765D01*
X55672Y117739D01*
X55651Y117728D01*
X55629Y117705D01*
X55573Y117660D01*
X50008Y112095D01*
X49955Y112021D01*
X49895Y111952D01*
X49883Y111922D01*
X49864Y111896D01*
X49837Y111809D01*
X49803Y111724D01*
X49799Y111683D01*
X49792Y111661D01*
X49793Y111628D01*
X49785Y111557D01*
X49785Y82662D01*
X41798Y74675D01*
X22777Y74675D01*
X22687Y74661D01*
X22596Y74653D01*
X22567Y74641D01*
X22535Y74636D01*
X22454Y74593D01*
X22370Y74557D01*
X22338Y74531D01*
X22317Y74520D01*
X22295Y74497D01*
X22239Y74452D01*
X19950Y72163D01*
X15554Y72163D01*
G37*
%LPD*%
%LPC*%
G36*
X56601Y9905D02*
X56601Y9905D01*
X53240Y11297D01*
X50667Y13870D01*
X49275Y17231D01*
X49275Y36109D01*
X50667Y39470D01*
X53240Y42043D01*
X56601Y43435D01*
X60239Y43435D01*
X63600Y42043D01*
X66173Y39470D01*
X67565Y36109D01*
X67565Y17231D01*
X66173Y13870D01*
X63600Y11297D01*
X60239Y9905D01*
X56601Y9905D01*
G37*
%LPD*%
%LPC*%
G36*
X48705Y210843D02*
X48705Y210843D01*
X45743Y213805D01*
X45743Y217702D01*
X45740Y217722D01*
X45742Y217741D01*
X45720Y217843D01*
X45704Y217945D01*
X45694Y217962D01*
X45690Y217982D01*
X45637Y218071D01*
X45588Y218162D01*
X45574Y218176D01*
X45564Y218193D01*
X45485Y218260D01*
X45410Y218332D01*
X45392Y218340D01*
X45377Y218353D01*
X45281Y218392D01*
X45187Y218435D01*
X45167Y218437D01*
X45149Y218445D01*
X44982Y218463D01*
X43625Y218463D01*
X40663Y221425D01*
X40663Y225615D01*
X43625Y228577D01*
X47815Y228577D01*
X50897Y225495D01*
X50913Y225483D01*
X50925Y225467D01*
X51013Y225411D01*
X51096Y225351D01*
X51115Y225345D01*
X51132Y225334D01*
X51233Y225309D01*
X51332Y225279D01*
X51351Y225279D01*
X51371Y225274D01*
X51474Y225282D01*
X51577Y225285D01*
X51596Y225292D01*
X51616Y225293D01*
X51711Y225334D01*
X51808Y225369D01*
X51824Y225382D01*
X51842Y225390D01*
X51973Y225495D01*
X55055Y228577D01*
X59245Y228577D01*
X62327Y225495D01*
X62343Y225483D01*
X62355Y225467D01*
X62443Y225411D01*
X62526Y225351D01*
X62545Y225345D01*
X62562Y225334D01*
X62663Y225309D01*
X62762Y225279D01*
X62781Y225279D01*
X62801Y225274D01*
X62904Y225282D01*
X63007Y225285D01*
X63026Y225292D01*
X63046Y225293D01*
X63141Y225334D01*
X63238Y225369D01*
X63254Y225382D01*
X63272Y225390D01*
X63403Y225495D01*
X66485Y228577D01*
X70675Y228577D01*
X73637Y225615D01*
X73637Y221425D01*
X70675Y218463D01*
X69318Y218463D01*
X69298Y218460D01*
X69279Y218462D01*
X69177Y218440D01*
X69075Y218424D01*
X69058Y218414D01*
X69038Y218410D01*
X68949Y218357D01*
X68858Y218308D01*
X68844Y218294D01*
X68827Y218284D01*
X68760Y218205D01*
X68688Y218130D01*
X68680Y218112D01*
X68667Y218097D01*
X68628Y218001D01*
X68585Y217907D01*
X68583Y217887D01*
X68575Y217869D01*
X68557Y217702D01*
X68557Y213805D01*
X65595Y210843D01*
X61405Y210843D01*
X58443Y213805D01*
X58443Y217702D01*
X58440Y217722D01*
X58442Y217741D01*
X58420Y217843D01*
X58404Y217945D01*
X58394Y217962D01*
X58390Y217982D01*
X58337Y218071D01*
X58288Y218162D01*
X58274Y218176D01*
X58264Y218193D01*
X58185Y218260D01*
X58110Y218332D01*
X58092Y218340D01*
X58077Y218353D01*
X57981Y218392D01*
X57887Y218435D01*
X57867Y218437D01*
X57849Y218445D01*
X57682Y218463D01*
X56618Y218463D01*
X56598Y218460D01*
X56579Y218462D01*
X56477Y218440D01*
X56375Y218424D01*
X56358Y218414D01*
X56338Y218410D01*
X56249Y218357D01*
X56158Y218308D01*
X56144Y218294D01*
X56127Y218284D01*
X56060Y218205D01*
X55988Y218130D01*
X55980Y218112D01*
X55967Y218097D01*
X55928Y218001D01*
X55885Y217907D01*
X55883Y217887D01*
X55875Y217869D01*
X55857Y217702D01*
X55857Y213805D01*
X52895Y210843D01*
X48705Y210843D01*
G37*
%LPD*%
%LPC*%
G36*
X34543Y28193D02*
X34543Y28193D01*
X34543Y44336D01*
X35399Y44201D01*
X36920Y43706D01*
X38345Y42980D01*
X39639Y42040D01*
X40770Y40909D01*
X41710Y39615D01*
X42436Y38190D01*
X42931Y36669D01*
X43181Y35090D01*
X43181Y28193D01*
X34543Y28193D01*
G37*
%LPD*%
%LPC*%
G36*
X34543Y25147D02*
X34543Y25147D01*
X43181Y25147D01*
X43181Y18250D01*
X42931Y16671D01*
X42436Y15150D01*
X41710Y13725D01*
X40770Y12431D01*
X39639Y11300D01*
X38345Y10360D01*
X36920Y9634D01*
X35399Y9139D01*
X34543Y9004D01*
X34543Y25147D01*
G37*
%LPD*%
%LPC*%
G36*
X22859Y28193D02*
X22859Y28193D01*
X22859Y35090D01*
X23109Y36669D01*
X23604Y38190D01*
X24330Y39615D01*
X25270Y40909D01*
X26401Y42040D01*
X27695Y42980D01*
X29120Y43706D01*
X30641Y44201D01*
X31497Y44336D01*
X31497Y28193D01*
X22859Y28193D01*
G37*
%LPD*%
%LPC*%
G36*
X30641Y9139D02*
X30641Y9139D01*
X29120Y9634D01*
X27695Y10360D01*
X26401Y11300D01*
X25270Y12431D01*
X24330Y13725D01*
X23604Y15150D01*
X23109Y16671D01*
X22859Y18250D01*
X22859Y25147D01*
X31497Y25147D01*
X31497Y9004D01*
X30641Y9139D01*
G37*
%LPD*%
%LPC*%
G36*
X33019Y26669D02*
X33019Y26669D01*
X33019Y26671D01*
X33021Y26671D01*
X33021Y26669D01*
X33019Y26669D01*
G37*
%LPD*%
D10*
X108458Y168001D02*
X108458Y169863D01*
X108460Y169933D01*
X108466Y170002D01*
X108476Y170071D01*
X108489Y170139D01*
X108507Y170207D01*
X108528Y170273D01*
X108553Y170338D01*
X108581Y170402D01*
X108613Y170464D01*
X108648Y170524D01*
X108687Y170582D01*
X108729Y170637D01*
X108774Y170691D01*
X108822Y170741D01*
X108872Y170789D01*
X108926Y170834D01*
X108981Y170876D01*
X109039Y170915D01*
X109099Y170950D01*
X109161Y170982D01*
X109225Y171010D01*
X109290Y171035D01*
X109356Y171056D01*
X109424Y171074D01*
X109492Y171087D01*
X109561Y171097D01*
X109630Y171103D01*
X109700Y171105D01*
X110321Y171105D01*
X110391Y171103D01*
X110460Y171097D01*
X110529Y171087D01*
X110597Y171074D01*
X110665Y171056D01*
X110731Y171035D01*
X110796Y171010D01*
X110860Y170982D01*
X110922Y170950D01*
X110982Y170915D01*
X111040Y170876D01*
X111095Y170834D01*
X111149Y170789D01*
X111199Y170741D01*
X111247Y170691D01*
X111292Y170637D01*
X111334Y170582D01*
X111373Y170524D01*
X111408Y170464D01*
X111440Y170402D01*
X111468Y170338D01*
X111493Y170273D01*
X111514Y170207D01*
X111532Y170139D01*
X111545Y170071D01*
X111555Y170002D01*
X111561Y169933D01*
X111563Y169863D01*
X111562Y169863D02*
X111562Y168001D01*
X114046Y168001D01*
X114046Y171105D01*
X114046Y173177D02*
X108458Y175039D01*
X114046Y176902D01*
X114046Y182093D02*
X108458Y182093D01*
X108458Y184577D01*
X108458Y187109D02*
X114046Y187109D01*
X108458Y186488D02*
X108458Y187730D01*
X114046Y187730D02*
X114046Y186488D01*
X114046Y190129D02*
X108458Y190129D01*
X108458Y193233D02*
X114046Y190129D01*
X114046Y193233D02*
X108458Y193233D01*
X108458Y195992D02*
X108458Y198476D01*
X108458Y195992D02*
X114046Y195992D01*
X114046Y198476D01*
X111562Y197855D02*
X111562Y195992D01*
X108458Y200243D02*
X114046Y202105D01*
X108458Y203968D01*
X109855Y203502D02*
X109855Y200708D01*
X108458Y206258D02*
X114046Y206258D01*
X114046Y207811D01*
X114044Y207888D01*
X114038Y207966D01*
X114029Y208042D01*
X114015Y208119D01*
X113998Y208194D01*
X113977Y208268D01*
X113952Y208342D01*
X113924Y208414D01*
X113892Y208484D01*
X113857Y208553D01*
X113818Y208620D01*
X113776Y208685D01*
X113731Y208748D01*
X113683Y208809D01*
X113632Y208867D01*
X113578Y208922D01*
X113521Y208975D01*
X113462Y209024D01*
X113400Y209071D01*
X113336Y209115D01*
X113270Y209155D01*
X113202Y209192D01*
X113132Y209226D01*
X113061Y209256D01*
X112988Y209282D01*
X112914Y209305D01*
X112839Y209324D01*
X112764Y209339D01*
X112687Y209351D01*
X112610Y209359D01*
X112533Y209363D01*
X112455Y209363D01*
X112378Y209359D01*
X112301Y209351D01*
X112224Y209339D01*
X112149Y209324D01*
X112074Y209305D01*
X112000Y209282D01*
X111927Y209256D01*
X111856Y209226D01*
X111786Y209192D01*
X111718Y209155D01*
X111652Y209115D01*
X111588Y209071D01*
X111526Y209024D01*
X111467Y208975D01*
X111410Y208922D01*
X111356Y208867D01*
X111305Y208809D01*
X111257Y208748D01*
X111212Y208685D01*
X111170Y208620D01*
X111131Y208553D01*
X111096Y208484D01*
X111064Y208414D01*
X111036Y208342D01*
X111011Y208268D01*
X110990Y208194D01*
X110973Y208119D01*
X110959Y208042D01*
X110950Y207966D01*
X110944Y207888D01*
X110942Y207811D01*
X110942Y206258D01*
X110942Y208121D02*
X108458Y209363D01*
X108458Y214854D02*
X114046Y214854D01*
X114046Y216406D01*
X114044Y216483D01*
X114038Y216561D01*
X114029Y216637D01*
X114015Y216714D01*
X113998Y216789D01*
X113977Y216863D01*
X113952Y216937D01*
X113924Y217009D01*
X113892Y217079D01*
X113857Y217148D01*
X113818Y217215D01*
X113776Y217280D01*
X113731Y217343D01*
X113683Y217404D01*
X113632Y217462D01*
X113578Y217517D01*
X113521Y217570D01*
X113462Y217619D01*
X113400Y217666D01*
X113336Y217710D01*
X113270Y217750D01*
X113202Y217787D01*
X113132Y217821D01*
X113061Y217851D01*
X112988Y217877D01*
X112914Y217900D01*
X112839Y217919D01*
X112764Y217934D01*
X112687Y217946D01*
X112610Y217954D01*
X112533Y217958D01*
X112455Y217958D01*
X112378Y217954D01*
X112301Y217946D01*
X112224Y217934D01*
X112149Y217919D01*
X112074Y217900D01*
X112000Y217877D01*
X111927Y217851D01*
X111856Y217821D01*
X111786Y217787D01*
X111718Y217750D01*
X111652Y217710D01*
X111588Y217666D01*
X111526Y217619D01*
X111467Y217570D01*
X111410Y217517D01*
X111356Y217462D01*
X111305Y217404D01*
X111257Y217343D01*
X111212Y217280D01*
X111170Y217215D01*
X111131Y217148D01*
X111096Y217079D01*
X111064Y217009D01*
X111036Y216937D01*
X111011Y216863D01*
X110990Y216789D01*
X110973Y216714D01*
X110959Y216637D01*
X110950Y216561D01*
X110944Y216483D01*
X110942Y216406D01*
X110942Y214854D01*
X110942Y216716D02*
X108458Y217958D01*
X108458Y220498D02*
X108458Y222981D01*
X108458Y220498D02*
X114046Y220498D01*
X114046Y222981D01*
X111562Y222360D02*
X111562Y220498D01*
X111562Y227415D02*
X111562Y228346D01*
X108458Y228346D01*
X108458Y226483D01*
X108460Y226413D01*
X108466Y226344D01*
X108476Y226275D01*
X108489Y226207D01*
X108507Y226139D01*
X108528Y226073D01*
X108553Y226008D01*
X108581Y225944D01*
X108613Y225882D01*
X108648Y225822D01*
X108687Y225764D01*
X108729Y225709D01*
X108774Y225655D01*
X108822Y225605D01*
X108872Y225557D01*
X108926Y225512D01*
X108981Y225470D01*
X109039Y225431D01*
X109099Y225396D01*
X109161Y225364D01*
X109225Y225336D01*
X109290Y225311D01*
X109356Y225290D01*
X109424Y225272D01*
X109492Y225259D01*
X109561Y225249D01*
X109630Y225243D01*
X109700Y225241D01*
X109700Y225242D02*
X112804Y225242D01*
X112804Y225241D02*
X112874Y225243D01*
X112943Y225249D01*
X113012Y225259D01*
X113080Y225272D01*
X113148Y225290D01*
X113214Y225311D01*
X113279Y225336D01*
X113343Y225364D01*
X113405Y225396D01*
X113465Y225431D01*
X113523Y225470D01*
X113578Y225512D01*
X113632Y225557D01*
X113682Y225605D01*
X113730Y225655D01*
X113775Y225709D01*
X113817Y225764D01*
X113856Y225822D01*
X113891Y225882D01*
X113923Y225944D01*
X113951Y226008D01*
X113976Y226073D01*
X113997Y226139D01*
X114015Y226207D01*
X114028Y226275D01*
X114038Y226344D01*
X114044Y226413D01*
X114046Y226483D01*
X114046Y228346D01*
X95758Y143767D02*
X101346Y141904D01*
X101346Y145629D02*
X95758Y143767D01*
X98552Y147701D02*
X98683Y147703D01*
X98813Y147708D01*
X98943Y147718D01*
X99073Y147731D01*
X99203Y147747D01*
X99332Y147767D01*
X99460Y147791D01*
X99587Y147819D01*
X99714Y147850D01*
X99840Y147885D01*
X99965Y147923D01*
X100089Y147965D01*
X100211Y148010D01*
X100332Y148059D01*
X100452Y148111D01*
X100570Y148167D01*
X100570Y148166D02*
X100630Y148189D01*
X100690Y148215D01*
X100747Y148244D01*
X100803Y148277D01*
X100857Y148313D01*
X100909Y148351D01*
X100959Y148393D01*
X101006Y148437D01*
X101051Y148484D01*
X101093Y148534D01*
X101132Y148585D01*
X101168Y148639D01*
X101201Y148695D01*
X101231Y148752D01*
X101258Y148811D01*
X101281Y148872D01*
X101301Y148933D01*
X101317Y148996D01*
X101330Y149060D01*
X101339Y149124D01*
X101344Y149188D01*
X101346Y149253D01*
X101344Y149318D01*
X101339Y149382D01*
X101330Y149446D01*
X101317Y149510D01*
X101301Y149573D01*
X101281Y149634D01*
X101258Y149695D01*
X101231Y149754D01*
X101201Y149811D01*
X101168Y149867D01*
X101132Y149921D01*
X101093Y149972D01*
X101051Y150022D01*
X101006Y150069D01*
X100959Y150113D01*
X100909Y150155D01*
X100857Y150193D01*
X100803Y150229D01*
X100747Y150262D01*
X100690Y150291D01*
X100630Y150317D01*
X100570Y150340D01*
X100452Y150396D01*
X100332Y150448D01*
X100211Y150497D01*
X100089Y150542D01*
X99965Y150584D01*
X99840Y150622D01*
X99714Y150657D01*
X99588Y150688D01*
X99460Y150716D01*
X99332Y150740D01*
X99203Y150760D01*
X99073Y150776D01*
X98943Y150789D01*
X98813Y150799D01*
X98683Y150804D01*
X98552Y150806D01*
X98552Y147701D02*
X98421Y147703D01*
X98291Y147708D01*
X98161Y147718D01*
X98031Y147731D01*
X97901Y147747D01*
X97772Y147767D01*
X97644Y147791D01*
X97517Y147819D01*
X97390Y147850D01*
X97264Y147885D01*
X97139Y147923D01*
X97015Y147965D01*
X96893Y148010D01*
X96772Y148059D01*
X96652Y148111D01*
X96534Y148167D01*
X96534Y148166D02*
X96474Y148189D01*
X96414Y148215D01*
X96357Y148244D01*
X96301Y148277D01*
X96247Y148313D01*
X96195Y148351D01*
X96145Y148393D01*
X96098Y148437D01*
X96053Y148484D01*
X96011Y148534D01*
X95972Y148585D01*
X95936Y148639D01*
X95903Y148695D01*
X95873Y148752D01*
X95846Y148811D01*
X95823Y148872D01*
X95803Y148933D01*
X95787Y148996D01*
X95774Y149060D01*
X95765Y149124D01*
X95760Y149188D01*
X95758Y149253D01*
X96534Y150339D02*
X96652Y150395D01*
X96772Y150447D01*
X96893Y150496D01*
X97015Y150541D01*
X97139Y150583D01*
X97264Y150621D01*
X97390Y150656D01*
X97516Y150687D01*
X97644Y150715D01*
X97772Y150739D01*
X97901Y150759D01*
X98031Y150775D01*
X98161Y150788D01*
X98291Y150798D01*
X98421Y150803D01*
X98552Y150805D01*
X96534Y150340D02*
X96474Y150317D01*
X96414Y150291D01*
X96357Y150262D01*
X96301Y150229D01*
X96247Y150193D01*
X96195Y150155D01*
X96145Y150113D01*
X96098Y150069D01*
X96053Y150022D01*
X96011Y149972D01*
X95972Y149921D01*
X95936Y149867D01*
X95903Y149811D01*
X95873Y149754D01*
X95846Y149695D01*
X95823Y149634D01*
X95803Y149573D01*
X95787Y149510D01*
X95774Y149446D01*
X95765Y149382D01*
X95760Y149318D01*
X95758Y149253D01*
X97000Y148011D02*
X100104Y150495D01*
X98552Y153187D02*
X98683Y153189D01*
X98813Y153194D01*
X98943Y153204D01*
X99073Y153217D01*
X99203Y153233D01*
X99332Y153253D01*
X99460Y153277D01*
X99587Y153305D01*
X99714Y153336D01*
X99840Y153371D01*
X99965Y153409D01*
X100089Y153451D01*
X100211Y153496D01*
X100332Y153545D01*
X100452Y153597D01*
X100570Y153653D01*
X100570Y153652D02*
X100630Y153675D01*
X100690Y153701D01*
X100747Y153730D01*
X100803Y153763D01*
X100857Y153799D01*
X100909Y153837D01*
X100959Y153879D01*
X101006Y153923D01*
X101051Y153970D01*
X101093Y154020D01*
X101132Y154071D01*
X101168Y154125D01*
X101201Y154181D01*
X101231Y154238D01*
X101258Y154297D01*
X101281Y154358D01*
X101301Y154419D01*
X101317Y154482D01*
X101330Y154546D01*
X101339Y154610D01*
X101344Y154674D01*
X101346Y154739D01*
X101344Y154804D01*
X101339Y154868D01*
X101330Y154932D01*
X101317Y154996D01*
X101301Y155059D01*
X101281Y155120D01*
X101258Y155181D01*
X101231Y155240D01*
X101201Y155297D01*
X101168Y155353D01*
X101132Y155407D01*
X101093Y155458D01*
X101051Y155508D01*
X101006Y155555D01*
X100959Y155599D01*
X100909Y155641D01*
X100857Y155679D01*
X100803Y155715D01*
X100747Y155748D01*
X100690Y155777D01*
X100630Y155803D01*
X100570Y155826D01*
X100452Y155882D01*
X100332Y155934D01*
X100211Y155983D01*
X100089Y156028D01*
X99965Y156070D01*
X99840Y156108D01*
X99714Y156143D01*
X99588Y156174D01*
X99460Y156202D01*
X99332Y156226D01*
X99203Y156246D01*
X99073Y156262D01*
X98943Y156275D01*
X98813Y156285D01*
X98683Y156290D01*
X98552Y156292D01*
X98552Y153187D02*
X98421Y153189D01*
X98291Y153194D01*
X98161Y153204D01*
X98031Y153217D01*
X97901Y153233D01*
X97772Y153253D01*
X97644Y153277D01*
X97517Y153305D01*
X97390Y153336D01*
X97264Y153371D01*
X97139Y153409D01*
X97015Y153451D01*
X96893Y153496D01*
X96772Y153545D01*
X96652Y153597D01*
X96534Y153653D01*
X96534Y153652D02*
X96474Y153675D01*
X96414Y153701D01*
X96357Y153730D01*
X96301Y153763D01*
X96247Y153799D01*
X96195Y153837D01*
X96145Y153879D01*
X96098Y153923D01*
X96053Y153970D01*
X96011Y154020D01*
X95972Y154071D01*
X95936Y154125D01*
X95903Y154181D01*
X95873Y154238D01*
X95846Y154297D01*
X95823Y154358D01*
X95803Y154419D01*
X95787Y154482D01*
X95774Y154546D01*
X95765Y154610D01*
X95760Y154674D01*
X95758Y154739D01*
X96534Y155826D02*
X96652Y155882D01*
X96772Y155934D01*
X96893Y155983D01*
X97015Y156028D01*
X97139Y156070D01*
X97264Y156108D01*
X97390Y156143D01*
X97516Y156174D01*
X97644Y156202D01*
X97772Y156226D01*
X97901Y156246D01*
X98031Y156262D01*
X98161Y156275D01*
X98291Y156285D01*
X98421Y156290D01*
X98552Y156292D01*
X96534Y155826D02*
X96474Y155803D01*
X96414Y155777D01*
X96357Y155748D01*
X96301Y155715D01*
X96247Y155679D01*
X96195Y155641D01*
X96145Y155599D01*
X96098Y155555D01*
X96053Y155508D01*
X96011Y155458D01*
X95972Y155407D01*
X95936Y155353D01*
X95903Y155297D01*
X95873Y155240D01*
X95846Y155181D01*
X95823Y155120D01*
X95803Y155059D01*
X95787Y154996D01*
X95774Y154932D01*
X95765Y154868D01*
X95760Y154804D01*
X95758Y154739D01*
X97000Y153498D02*
X100104Y155981D01*
X95137Y158435D02*
X95137Y160919D01*
X95758Y163329D02*
X101346Y163329D01*
X101346Y166433D02*
X97931Y163329D01*
X99173Y164570D02*
X95758Y166433D01*
X95758Y169004D02*
X101346Y169004D01*
X95758Y168383D02*
X95758Y169625D01*
X101346Y169625D02*
X101346Y168383D01*
X101346Y172107D02*
X95758Y172107D01*
X101346Y172107D02*
X101346Y173659D01*
X101344Y173736D01*
X101338Y173814D01*
X101329Y173890D01*
X101315Y173967D01*
X101298Y174042D01*
X101277Y174116D01*
X101252Y174190D01*
X101224Y174262D01*
X101192Y174332D01*
X101157Y174401D01*
X101118Y174468D01*
X101076Y174533D01*
X101031Y174596D01*
X100983Y174657D01*
X100932Y174715D01*
X100878Y174770D01*
X100821Y174823D01*
X100762Y174872D01*
X100700Y174919D01*
X100636Y174963D01*
X100570Y175003D01*
X100502Y175040D01*
X100432Y175074D01*
X100361Y175104D01*
X100288Y175130D01*
X100214Y175153D01*
X100139Y175172D01*
X100064Y175187D01*
X99987Y175199D01*
X99910Y175207D01*
X99833Y175211D01*
X99755Y175211D01*
X99678Y175207D01*
X99601Y175199D01*
X99524Y175187D01*
X99449Y175172D01*
X99374Y175153D01*
X99300Y175130D01*
X99227Y175104D01*
X99156Y175074D01*
X99086Y175040D01*
X99018Y175003D01*
X98952Y174963D01*
X98888Y174919D01*
X98826Y174872D01*
X98767Y174823D01*
X98710Y174770D01*
X98656Y174715D01*
X98605Y174657D01*
X98557Y174596D01*
X98512Y174533D01*
X98470Y174468D01*
X98431Y174401D01*
X98396Y174332D01*
X98364Y174262D01*
X98336Y174190D01*
X98311Y174116D01*
X98290Y174042D01*
X98273Y173967D01*
X98259Y173890D01*
X98250Y173814D01*
X98244Y173736D01*
X98242Y173659D01*
X98242Y172107D01*
X95758Y179007D02*
X95760Y179077D01*
X95766Y179146D01*
X95776Y179215D01*
X95789Y179283D01*
X95807Y179351D01*
X95828Y179417D01*
X95853Y179482D01*
X95881Y179546D01*
X95913Y179608D01*
X95948Y179668D01*
X95987Y179726D01*
X96029Y179781D01*
X96074Y179835D01*
X96122Y179885D01*
X96172Y179933D01*
X96226Y179978D01*
X96281Y180020D01*
X96339Y180059D01*
X96399Y180094D01*
X96461Y180126D01*
X96525Y180154D01*
X96590Y180179D01*
X96656Y180200D01*
X96724Y180218D01*
X96792Y180231D01*
X96861Y180241D01*
X96930Y180247D01*
X97000Y180249D01*
X95758Y179007D02*
X95760Y178908D01*
X95765Y178810D01*
X95775Y178712D01*
X95788Y178614D01*
X95804Y178517D01*
X95824Y178420D01*
X95848Y178325D01*
X95876Y178230D01*
X95907Y178136D01*
X95941Y178044D01*
X95979Y177953D01*
X96020Y177863D01*
X96065Y177775D01*
X96113Y177689D01*
X96164Y177605D01*
X96218Y177523D01*
X96276Y177442D01*
X96336Y177364D01*
X96399Y177289D01*
X96465Y177215D01*
X96534Y177145D01*
X100104Y177299D02*
X100174Y177301D01*
X100243Y177307D01*
X100312Y177317D01*
X100380Y177330D01*
X100448Y177348D01*
X100514Y177369D01*
X100579Y177394D01*
X100643Y177422D01*
X100705Y177454D01*
X100765Y177489D01*
X100823Y177528D01*
X100878Y177570D01*
X100932Y177615D01*
X100982Y177663D01*
X101030Y177713D01*
X101075Y177767D01*
X101117Y177822D01*
X101156Y177880D01*
X101191Y177940D01*
X101223Y178002D01*
X101251Y178066D01*
X101276Y178131D01*
X101297Y178197D01*
X101315Y178265D01*
X101328Y178333D01*
X101338Y178402D01*
X101344Y178471D01*
X101346Y178541D01*
X101344Y178635D01*
X101338Y178728D01*
X101329Y178821D01*
X101316Y178914D01*
X101299Y179006D01*
X101279Y179097D01*
X101254Y179188D01*
X101227Y179277D01*
X101195Y179365D01*
X101160Y179452D01*
X101122Y179538D01*
X101080Y179621D01*
X101035Y179703D01*
X100987Y179784D01*
X100935Y179862D01*
X100880Y179938D01*
X99018Y177921D02*
X99054Y177862D01*
X99094Y177806D01*
X99137Y177752D01*
X99182Y177700D01*
X99231Y177651D01*
X99282Y177605D01*
X99335Y177562D01*
X99391Y177521D01*
X99449Y177484D01*
X99509Y177449D01*
X99570Y177419D01*
X99633Y177391D01*
X99698Y177367D01*
X99764Y177347D01*
X99831Y177330D01*
X99898Y177317D01*
X99966Y177308D01*
X100035Y177302D01*
X100104Y177300D01*
X98086Y179628D02*
X98050Y179687D01*
X98010Y179743D01*
X97967Y179797D01*
X97922Y179849D01*
X97873Y179898D01*
X97822Y179944D01*
X97769Y179987D01*
X97713Y180028D01*
X97655Y180065D01*
X97595Y180100D01*
X97534Y180130D01*
X97471Y180158D01*
X97406Y180182D01*
X97340Y180202D01*
X97273Y180219D01*
X97206Y180232D01*
X97138Y180241D01*
X97069Y180247D01*
X97000Y180249D01*
X98086Y179628D02*
X99018Y177920D01*
X95137Y182210D02*
X95137Y184693D01*
X98552Y186837D02*
X98683Y186839D01*
X98813Y186844D01*
X98943Y186854D01*
X99073Y186867D01*
X99203Y186883D01*
X99332Y186903D01*
X99460Y186927D01*
X99587Y186955D01*
X99714Y186986D01*
X99840Y187021D01*
X99965Y187059D01*
X100089Y187101D01*
X100211Y187146D01*
X100332Y187195D01*
X100452Y187247D01*
X100570Y187303D01*
X100570Y187302D02*
X100630Y187325D01*
X100690Y187351D01*
X100747Y187380D01*
X100803Y187413D01*
X100857Y187449D01*
X100909Y187487D01*
X100959Y187529D01*
X101006Y187573D01*
X101051Y187620D01*
X101093Y187670D01*
X101132Y187721D01*
X101168Y187775D01*
X101201Y187831D01*
X101231Y187888D01*
X101258Y187947D01*
X101281Y188008D01*
X101301Y188069D01*
X101317Y188132D01*
X101330Y188196D01*
X101339Y188260D01*
X101344Y188324D01*
X101346Y188389D01*
X101344Y188454D01*
X101339Y188518D01*
X101330Y188582D01*
X101317Y188646D01*
X101301Y188709D01*
X101281Y188770D01*
X101258Y188831D01*
X101231Y188890D01*
X101201Y188947D01*
X101168Y189003D01*
X101132Y189057D01*
X101093Y189108D01*
X101051Y189158D01*
X101006Y189205D01*
X100959Y189249D01*
X100909Y189291D01*
X100857Y189329D01*
X100803Y189365D01*
X100747Y189398D01*
X100690Y189427D01*
X100630Y189453D01*
X100570Y189476D01*
X100452Y189532D01*
X100332Y189584D01*
X100211Y189633D01*
X100089Y189678D01*
X99965Y189720D01*
X99840Y189758D01*
X99714Y189793D01*
X99588Y189824D01*
X99460Y189852D01*
X99332Y189876D01*
X99203Y189896D01*
X99073Y189912D01*
X98943Y189925D01*
X98813Y189935D01*
X98683Y189940D01*
X98552Y189942D01*
X98552Y186837D02*
X98421Y186839D01*
X98291Y186844D01*
X98161Y186854D01*
X98031Y186867D01*
X97901Y186883D01*
X97772Y186903D01*
X97644Y186927D01*
X97517Y186955D01*
X97390Y186986D01*
X97264Y187021D01*
X97139Y187059D01*
X97015Y187101D01*
X96893Y187146D01*
X96772Y187195D01*
X96652Y187247D01*
X96534Y187303D01*
X96534Y187302D02*
X96474Y187325D01*
X96414Y187351D01*
X96357Y187380D01*
X96301Y187413D01*
X96247Y187449D01*
X96195Y187487D01*
X96145Y187529D01*
X96098Y187573D01*
X96053Y187620D01*
X96011Y187670D01*
X95972Y187721D01*
X95936Y187775D01*
X95903Y187831D01*
X95873Y187888D01*
X95846Y187947D01*
X95823Y188008D01*
X95803Y188069D01*
X95787Y188132D01*
X95774Y188196D01*
X95765Y188260D01*
X95760Y188324D01*
X95758Y188389D01*
X96534Y189476D02*
X96652Y189532D01*
X96772Y189584D01*
X96893Y189633D01*
X97015Y189678D01*
X97139Y189720D01*
X97264Y189758D01*
X97390Y189793D01*
X97516Y189824D01*
X97644Y189852D01*
X97772Y189876D01*
X97901Y189896D01*
X98031Y189912D01*
X98161Y189925D01*
X98291Y189935D01*
X98421Y189940D01*
X98552Y189942D01*
X96534Y189476D02*
X96474Y189453D01*
X96414Y189427D01*
X96357Y189398D01*
X96301Y189365D01*
X96247Y189329D01*
X96195Y189291D01*
X96145Y189249D01*
X96098Y189205D01*
X96053Y189158D01*
X96011Y189108D01*
X95972Y189057D01*
X95936Y189003D01*
X95903Y188947D01*
X95873Y188890D01*
X95846Y188831D01*
X95823Y188770D01*
X95803Y188709D01*
X95787Y188646D01*
X95774Y188582D01*
X95765Y188518D01*
X95760Y188454D01*
X95758Y188389D01*
X97000Y187147D02*
X100104Y189631D01*
X100104Y192323D02*
X101346Y193876D01*
X95758Y193876D01*
X95758Y195428D02*
X95758Y192323D01*
X101346Y199517D02*
X101344Y199590D01*
X101338Y199663D01*
X101329Y199736D01*
X101315Y199807D01*
X101298Y199879D01*
X101278Y199949D01*
X101253Y200018D01*
X101225Y200085D01*
X101194Y200151D01*
X101159Y200216D01*
X101121Y200278D01*
X101079Y200338D01*
X101035Y200396D01*
X100987Y200452D01*
X100937Y200505D01*
X100884Y200555D01*
X100828Y200603D01*
X100770Y200647D01*
X100710Y200689D01*
X100648Y200727D01*
X100583Y200762D01*
X100517Y200793D01*
X100450Y200821D01*
X100381Y200846D01*
X100311Y200866D01*
X100239Y200883D01*
X100168Y200897D01*
X100095Y200906D01*
X100022Y200912D01*
X99949Y200914D01*
X101346Y199517D02*
X101344Y199433D01*
X101338Y199350D01*
X101329Y199267D01*
X101315Y199185D01*
X101298Y199103D01*
X101276Y199022D01*
X101251Y198942D01*
X101223Y198864D01*
X101191Y198786D01*
X101155Y198711D01*
X101116Y198637D01*
X101073Y198565D01*
X101027Y198495D01*
X100978Y198428D01*
X100925Y198362D01*
X100870Y198300D01*
X100812Y198240D01*
X100751Y198182D01*
X100688Y198128D01*
X100622Y198076D01*
X100554Y198028D01*
X100483Y197983D01*
X100411Y197941D01*
X100336Y197903D01*
X100260Y197868D01*
X100183Y197837D01*
X100104Y197809D01*
X98863Y200448D02*
X98916Y200502D01*
X98973Y200553D01*
X99032Y200601D01*
X99093Y200646D01*
X99156Y200687D01*
X99222Y200726D01*
X99289Y200761D01*
X99358Y200793D01*
X99429Y200821D01*
X99500Y200845D01*
X99573Y200866D01*
X99647Y200883D01*
X99722Y200897D01*
X99797Y200906D01*
X99873Y200912D01*
X99949Y200914D01*
X98862Y200448D02*
X95758Y197810D01*
X95758Y200914D01*
X99949Y206401D02*
X100022Y206399D01*
X100095Y206393D01*
X100168Y206384D01*
X100239Y206370D01*
X100311Y206353D01*
X100381Y206333D01*
X100450Y206308D01*
X100517Y206280D01*
X100583Y206249D01*
X100648Y206214D01*
X100710Y206176D01*
X100770Y206134D01*
X100828Y206090D01*
X100884Y206042D01*
X100937Y205992D01*
X100987Y205939D01*
X101035Y205883D01*
X101079Y205825D01*
X101121Y205765D01*
X101159Y205703D01*
X101194Y205638D01*
X101225Y205572D01*
X101253Y205505D01*
X101278Y205436D01*
X101298Y205366D01*
X101315Y205294D01*
X101329Y205223D01*
X101338Y205150D01*
X101344Y205077D01*
X101346Y205004D01*
X101344Y204920D01*
X101338Y204837D01*
X101329Y204754D01*
X101315Y204672D01*
X101298Y204590D01*
X101276Y204509D01*
X101251Y204429D01*
X101223Y204351D01*
X101191Y204273D01*
X101155Y204198D01*
X101116Y204124D01*
X101073Y204052D01*
X101027Y203982D01*
X100978Y203915D01*
X100925Y203849D01*
X100870Y203787D01*
X100812Y203727D01*
X100751Y203669D01*
X100688Y203615D01*
X100622Y203563D01*
X100554Y203515D01*
X100483Y203470D01*
X100411Y203428D01*
X100336Y203390D01*
X100260Y203355D01*
X100183Y203324D01*
X100104Y203296D01*
X98863Y205934D02*
X98916Y205988D01*
X98973Y206039D01*
X99032Y206087D01*
X99093Y206132D01*
X99156Y206173D01*
X99222Y206212D01*
X99289Y206247D01*
X99358Y206279D01*
X99429Y206307D01*
X99500Y206331D01*
X99573Y206352D01*
X99647Y206369D01*
X99722Y206383D01*
X99797Y206392D01*
X99873Y206398D01*
X99949Y206400D01*
X98862Y205935D02*
X95758Y203296D01*
X95758Y206401D01*
X99949Y211887D02*
X100022Y211885D01*
X100095Y211879D01*
X100168Y211870D01*
X100239Y211856D01*
X100311Y211839D01*
X100381Y211819D01*
X100450Y211794D01*
X100517Y211766D01*
X100583Y211735D01*
X100648Y211700D01*
X100710Y211662D01*
X100770Y211620D01*
X100828Y211576D01*
X100884Y211528D01*
X100937Y211478D01*
X100987Y211425D01*
X101035Y211369D01*
X101079Y211311D01*
X101121Y211251D01*
X101159Y211189D01*
X101194Y211124D01*
X101225Y211058D01*
X101253Y210991D01*
X101278Y210922D01*
X101298Y210852D01*
X101315Y210780D01*
X101329Y210709D01*
X101338Y210636D01*
X101344Y210563D01*
X101346Y210490D01*
X101344Y210406D01*
X101338Y210323D01*
X101329Y210240D01*
X101315Y210158D01*
X101298Y210076D01*
X101276Y209995D01*
X101251Y209915D01*
X101223Y209837D01*
X101191Y209759D01*
X101155Y209684D01*
X101116Y209610D01*
X101073Y209538D01*
X101027Y209468D01*
X100978Y209401D01*
X100925Y209335D01*
X100870Y209273D01*
X100812Y209213D01*
X100751Y209155D01*
X100688Y209101D01*
X100622Y209049D01*
X100554Y209001D01*
X100483Y208956D01*
X100411Y208914D01*
X100336Y208876D01*
X100260Y208841D01*
X100183Y208810D01*
X100104Y208782D01*
X98863Y211420D02*
X98916Y211474D01*
X98973Y211525D01*
X99032Y211573D01*
X99093Y211618D01*
X99156Y211659D01*
X99222Y211698D01*
X99289Y211733D01*
X99358Y211765D01*
X99429Y211793D01*
X99500Y211817D01*
X99573Y211838D01*
X99647Y211855D01*
X99722Y211869D01*
X99797Y211878D01*
X99873Y211884D01*
X99949Y211886D01*
X98862Y211421D02*
X95758Y208782D01*
X95758Y211887D01*
X98552Y214269D02*
X98683Y214271D01*
X98813Y214276D01*
X98943Y214286D01*
X99073Y214299D01*
X99203Y214315D01*
X99332Y214335D01*
X99460Y214359D01*
X99587Y214387D01*
X99714Y214418D01*
X99840Y214453D01*
X99965Y214491D01*
X100089Y214533D01*
X100211Y214578D01*
X100332Y214627D01*
X100452Y214679D01*
X100570Y214735D01*
X100570Y214734D02*
X100630Y214757D01*
X100690Y214783D01*
X100747Y214812D01*
X100803Y214845D01*
X100857Y214881D01*
X100909Y214919D01*
X100959Y214961D01*
X101006Y215005D01*
X101051Y215052D01*
X101093Y215102D01*
X101132Y215153D01*
X101168Y215207D01*
X101201Y215263D01*
X101231Y215320D01*
X101258Y215379D01*
X101281Y215440D01*
X101301Y215501D01*
X101317Y215564D01*
X101330Y215628D01*
X101339Y215692D01*
X101344Y215756D01*
X101346Y215821D01*
X101344Y215886D01*
X101339Y215950D01*
X101330Y216014D01*
X101317Y216078D01*
X101301Y216141D01*
X101281Y216202D01*
X101258Y216263D01*
X101231Y216322D01*
X101201Y216379D01*
X101168Y216435D01*
X101132Y216489D01*
X101093Y216540D01*
X101051Y216590D01*
X101006Y216637D01*
X100959Y216681D01*
X100909Y216723D01*
X100857Y216761D01*
X100803Y216797D01*
X100747Y216830D01*
X100690Y216859D01*
X100630Y216885D01*
X100570Y216908D01*
X100452Y216964D01*
X100332Y217016D01*
X100211Y217065D01*
X100089Y217110D01*
X99965Y217152D01*
X99840Y217190D01*
X99714Y217225D01*
X99588Y217256D01*
X99460Y217284D01*
X99332Y217308D01*
X99203Y217328D01*
X99073Y217344D01*
X98943Y217357D01*
X98813Y217367D01*
X98683Y217372D01*
X98552Y217374D01*
X98552Y214269D02*
X98421Y214271D01*
X98291Y214276D01*
X98161Y214286D01*
X98031Y214299D01*
X97901Y214315D01*
X97772Y214335D01*
X97644Y214359D01*
X97517Y214387D01*
X97390Y214418D01*
X97264Y214453D01*
X97139Y214491D01*
X97015Y214533D01*
X96893Y214578D01*
X96772Y214627D01*
X96652Y214679D01*
X96534Y214735D01*
X96534Y214734D02*
X96474Y214757D01*
X96414Y214783D01*
X96357Y214812D01*
X96301Y214845D01*
X96247Y214881D01*
X96195Y214919D01*
X96145Y214961D01*
X96098Y215005D01*
X96053Y215052D01*
X96011Y215102D01*
X95972Y215153D01*
X95936Y215207D01*
X95903Y215263D01*
X95873Y215320D01*
X95846Y215379D01*
X95823Y215440D01*
X95803Y215501D01*
X95787Y215564D01*
X95774Y215628D01*
X95765Y215692D01*
X95760Y215756D01*
X95758Y215821D01*
X96534Y216907D02*
X96652Y216963D01*
X96772Y217015D01*
X96893Y217064D01*
X97015Y217109D01*
X97139Y217151D01*
X97264Y217189D01*
X97390Y217224D01*
X97516Y217255D01*
X97644Y217283D01*
X97772Y217307D01*
X97901Y217327D01*
X98031Y217343D01*
X98161Y217356D01*
X98291Y217366D01*
X98421Y217371D01*
X98552Y217373D01*
X96534Y216908D02*
X96474Y216885D01*
X96414Y216859D01*
X96357Y216830D01*
X96301Y216797D01*
X96247Y216761D01*
X96195Y216723D01*
X96145Y216681D01*
X96098Y216637D01*
X96053Y216590D01*
X96011Y216540D01*
X95972Y216489D01*
X95936Y216435D01*
X95903Y216379D01*
X95873Y216322D01*
X95846Y216263D01*
X95823Y216202D01*
X95803Y216141D01*
X95787Y216078D01*
X95774Y216014D01*
X95765Y215950D01*
X95760Y215886D01*
X95758Y215821D01*
X97000Y214579D02*
X100104Y217063D01*
X101346Y221463D02*
X101344Y221536D01*
X101338Y221609D01*
X101329Y221682D01*
X101315Y221753D01*
X101298Y221825D01*
X101278Y221895D01*
X101253Y221964D01*
X101225Y222031D01*
X101194Y222097D01*
X101159Y222162D01*
X101121Y222224D01*
X101079Y222284D01*
X101035Y222342D01*
X100987Y222398D01*
X100937Y222451D01*
X100884Y222501D01*
X100828Y222549D01*
X100770Y222593D01*
X100710Y222635D01*
X100648Y222673D01*
X100583Y222708D01*
X100517Y222739D01*
X100450Y222767D01*
X100381Y222792D01*
X100311Y222812D01*
X100239Y222829D01*
X100168Y222843D01*
X100095Y222852D01*
X100022Y222858D01*
X99949Y222860D01*
X101346Y221463D02*
X101344Y221379D01*
X101338Y221296D01*
X101329Y221213D01*
X101315Y221131D01*
X101298Y221049D01*
X101276Y220968D01*
X101251Y220888D01*
X101223Y220810D01*
X101191Y220732D01*
X101155Y220657D01*
X101116Y220583D01*
X101073Y220511D01*
X101027Y220441D01*
X100978Y220374D01*
X100925Y220308D01*
X100870Y220246D01*
X100812Y220186D01*
X100751Y220128D01*
X100688Y220074D01*
X100622Y220022D01*
X100554Y219974D01*
X100483Y219929D01*
X100411Y219887D01*
X100336Y219849D01*
X100260Y219814D01*
X100183Y219783D01*
X100104Y219755D01*
X98863Y222393D02*
X98916Y222447D01*
X98973Y222498D01*
X99032Y222546D01*
X99093Y222591D01*
X99156Y222632D01*
X99222Y222671D01*
X99289Y222706D01*
X99358Y222738D01*
X99429Y222766D01*
X99500Y222790D01*
X99573Y222811D01*
X99647Y222828D01*
X99722Y222842D01*
X99797Y222851D01*
X99873Y222857D01*
X99949Y222859D01*
X98862Y222394D02*
X95758Y219755D01*
X95758Y222860D01*
X100104Y225242D02*
X101346Y226794D01*
X95758Y226794D01*
X95758Y225242D02*
X95758Y228346D01*
D11*
X33020Y34290D02*
X33020Y19050D01*
X58420Y19050D02*
X58420Y34290D01*
X83820Y34290D02*
X83820Y19050D01*
D12*
X83820Y26670D02*
X83820Y50800D01*
X68580Y66040D01*
D13*
X57150Y107950D03*
D12*
X68580Y96520D01*
X68580Y66040D01*
D13*
X57150Y123190D03*
D12*
X46990Y113030D01*
X46990Y83820D01*
X40640Y77470D01*
D13*
X17752Y77470D03*
D12*
X40640Y77470D01*
D13*
X57150Y92710D03*
X21590Y142240D03*
X97790Y77470D03*
D14*
X45720Y223520D03*
X57150Y223520D03*
X68580Y223520D03*
X63500Y215900D03*
X50800Y215900D03*
M02*
