G04 EAGLE Gerber RS-274X export*
G75*
%MOMM*%
%FSLAX34Y34*%
%LPD*%
%IN*%
%IPPOS*%
%AMOC8*
5,1,8,0,0,1.08239X$1,22.5*%
G01*
%ADD10C,0.254000*%


D10*
X-3810Y-5080D02*
X118620Y-5080D01*
X118620Y248820D01*
X-3810Y248820D01*
X-3810Y-5080D01*
X20955Y232004D02*
X20876Y231197D01*
X20717Y230402D01*
X20482Y229626D01*
X20171Y228876D01*
X19789Y228161D01*
X19338Y227487D01*
X18824Y226860D01*
X18250Y226286D01*
X17623Y225772D01*
X16949Y225321D01*
X16234Y224939D01*
X15484Y224628D01*
X14708Y224393D01*
X13913Y224235D01*
X13106Y224155D01*
X12294Y224155D01*
X11487Y224235D01*
X10692Y224393D01*
X9916Y224628D01*
X9166Y224939D01*
X8451Y225321D01*
X7777Y225772D01*
X7150Y226286D01*
X6576Y226860D01*
X6062Y227487D01*
X5611Y228161D01*
X5229Y228876D01*
X4918Y229626D01*
X4683Y230402D01*
X4525Y231197D01*
X4445Y232004D01*
X4445Y232816D01*
X4525Y233623D01*
X4683Y234418D01*
X4918Y235194D01*
X5229Y235944D01*
X5611Y236659D01*
X6062Y237333D01*
X6576Y237960D01*
X7150Y238534D01*
X7777Y239048D01*
X8451Y239499D01*
X9166Y239881D01*
X9916Y240192D01*
X10692Y240427D01*
X11487Y240586D01*
X12294Y240665D01*
X13106Y240665D01*
X13913Y240586D01*
X14708Y240427D01*
X15484Y240192D01*
X16234Y239881D01*
X16949Y239499D01*
X17623Y239048D01*
X18250Y238534D01*
X18824Y237960D01*
X19338Y237333D01*
X19789Y236659D01*
X20171Y235944D01*
X20482Y235194D01*
X20717Y234418D01*
X20876Y233623D01*
X20955Y232816D01*
X20955Y232004D01*
M02*
